<svg xmlns="http://www.w3.org/2000/svg" xmlns:xlink="http://www.w3.org/1999/xlink" id="logo" width="50.667" height="50.667" class="svg replaced-svg" color="#FFF" cursor="pointer" preserveAspectRatio="xMidYMid meet" version="1.1" viewBox="0 0 172 172" style="border-color:#fff;height:50.6562px;outline-color:#fff;width:50.6562px;-webkit-column-rule-color:#fff;perspective-origin:25.3281px 25.3281px;-webkit-text-emphasis-color:#fff;-webkit-text-fill-color:#fff;-webkit-text-stroke-color:#fff;transform-origin:25.3281px 25.3281px"><metadata color="#FFF" cursor="pointer" style="border-color:#fff;height:auto;outline-color:#fff;overflow-x:visible;overflow-y:visible;width:auto;-webkit-column-rule-color:#fff;perspective-origin:50% 50%;-webkit-text-emphasis-color:#fff;-webkit-text-fill-color:#fff;-webkit-text-stroke-color:#fff;transform-origin:0 0">Created by Docfx</metadata><g style="border-color:#fff;height:auto;outline-color:#fff;overflow-x:visible;overflow-y:visible;width:auto;-webkit-column-rule-color:#fff;perspective-origin:0 0;-webkit-text-emphasis-color:#fff;-webkit-text-fill-color:#fff;-webkit-text-stroke-color:#fff;transform-origin:0 0" fill="#DDD" stroke="none" color="#FFF" cursor="pointer"><path fill="#DDD" d="M230 1359 c0 -18 11 -30 44 -48 80 -42 81 -45 81 -441 0 -400 -1 -404 -79 -436 -36 -15 -46 -24 -46 -43 0 -23 2 -24 61 -17 34 3 88 6 120 6 l59 0 0 495 0 495 -82 0 c-46 0 -100 3 -120 6 -35 6 -38 5 -38 -17z" color="#FFF" cursor="pointer" transform="translate(0.000000,172.000000) scale(0.100000,-0.100000)" style="border-color:#fff;height:auto;outline-color:#fff;overflow-x:visible;overflow-y:visible;width:auto;-webkit-column-rule-color:#fff;perspective-origin:0 0;-webkit-text-emphasis-color:#fff;-webkit-text-fill-color:#fff;-webkit-text-stroke-color:#fff;transform-origin:0 0"/><path fill="#DDD" d="M618 1373 l-118 -4 0 -493 0 -494 154 -7 c181 -9 235 -3 313 34 68 33 168 130 207 202 75 136 75 384 1 536 -71 145 -234 240 -399 231 -23 -1 -94 -4 -158 -5z m287 -119 c68 -24 144 -101 176 -179 22 -54 24 -75 24 -210 0 -141 -2 -153 -26 -206 -36 -76 -89 -132 -152 -160 -45 -21 -68 -24 -164 -24 -71 0 -116 4 -123 11 -22 22 -31 175 -28 463 2 208 6 293 15 302 32 32 188 33 278 3z" color="#FFF" cursor="pointer" transform="translate(0.000000,172.000000) scale(0.100000,-0.100000)" style="border-color:#fff;height:auto;outline-color:#fff;overflow-x:visible;overflow-y:visible;width:auto;-webkit-column-rule-color:#fff;perspective-origin:0 0;-webkit-text-emphasis-color:#fff;-webkit-text-fill-color:#fff;-webkit-text-stroke-color:#fff;transform-origin:0 0"/><path fill="#DDD" d="M1170 1228 c75 -104 110 -337 76 -508 -21 -100 -56 -178 -105 -233 l-36 -41 34 20 c75 43 160 133 198 212 37 75 38 78 38 191 -1 129 -18 191 -75 270 -28 38 -136 131 -153 131 -4 0 6 -19 23 -42z" color="#FFF" cursor="pointer" transform="translate(0.000000,172.000000) scale(0.100000,-0.100000)" style="border-color:#fff;height:auto;outline-color:#fff;overflow-x:visible;overflow-y:visible;width:auto;-webkit-column-rule-color:#fff;perspective-origin:0 0;-webkit-text-emphasis-color:#fff;-webkit-text-fill-color:#fff;-webkit-text-stroke-color:#fff;transform-origin:0 0"/></g></svg>